<?xml version="1.0" encoding="UTF-8"?>
<svg id="Layer_1" data-name="Layer 1" xmlns="http://www.w3.org/2000/svg" width="298.36" height="73.6" viewBox="-1 -10 5 100.6">
  <defs>
    <style>
      .cls-1 {
        stroke-width: 0px;
      }

      .cls-1, .cls-2 {
        fill: #0c2610;
      }

      .cls-2 {
        font-family: JUSTSans-Rg, 'JUST Sans';
        font-size: 20px;
      }

      .cls-3 {
        letter-spacing: .2em;
      }

      .cls-4 {
        letter-spacing: .2em;
      }

      .cls-5 {
        letter-spacing: .2em;
      }
    </style>
  </defs>
  <text class="cls-2" transform="translate(33.43 69)">
  <tspan class="cls-4" x="0" y="0">SO</tspan>
  <tspan class="cls-5" x="34.7" y="0">L</tspan>
  <tspan class="cls-3" x="49.66" y="0">UTIONS</tspan>
  </text>
  <g>
    <path class="cls-1" d="M17.59,0l2.4,8.38h11.39S33.94,0,33.94,0h10.6s-13.13,42.53-13.13,42.53h-13.8S4.27,0,4.27,0h13.32ZM29.17,17.66h-6.88s3.44,12.34,3.44,12.34l3.44-12.34Z"/>
    <path class="cls-1" d="M78.27,32.09v10.44h-29.82V0h13.06v32.09h16.76Z"/>
    <path class="cls-1" d="M96.06,27.08v15.45h-13.24V0h18.17C105.51,0,108.96.52,111.32,1.56c2.36,1.04,4.23,2.63,5.61,4.77,1.38,2.14,2.07,4.54,2.07,7.2,0,4.05-1.41,7.32-4.24,9.81-2.83,2.49-6.59,3.74-11.31,3.74h-7.39ZM95.88,17.95h4.36c3.84,0,5.76-1.41,5.76-4.24,0-2.66-1.78-3.99-5.33-3.99h-4.8v8.23Z"/>
    <path class="cls-1" d="M159.94,0v42.53h-13.06v-16.54h-9.97v16.54h-13.06V0h13.06v15.64h9.97V0h13.06Z"/>
    <path class="cls-1" d="M190.77,42.53l-2.4-8.38h-11.39l-2.55,8.38h-10.6L176.95,0h13.8l13.34,42.53h-13.32ZM179.19,24.86h6.88l-3.44-12.34-3.44,12.34Z"/>
  </g>
</svg>