<?xml version="1.0" encoding="UTF-8"?>
<svg id="Layer_1" data-name="Layer 1" xmlns="http://www.w3.org/2000/svg" width="150" height="150" viewBox="-31 -60 200 200">
  <defs>
    <style>
      .cls-1 {
        fill: #f2c6a0;
        stroke-width: 0px;
      }
    </style>
  </defs>
  <path class="cls-1" d="M127.94,43.14h-37.75c-.96,0-1.68-.91-1.42-1.83,1.53-5.45,1.67-11.36,1.67-16.94,0-3.09.15-6.59-.19-9.96-.35-3.43-1.2-6.74-3.22-9.35-2.24-2.9-5.58-5.06-9.31-5.06-8.62,0-9.99,8.45-10.79,15.29-.94,7.99-1.31,16.24-4.84,23.61-2.47,5.15-5.97,9.58-11.47,11.75-4.23,1.67-7.33,2.97-11.79,3.84-.69.13-1.19.73-1.19,1.43v55.82c0,.81.66,1.47,1.47,1.47h15.44c.47,0,.9.23,1.18.61,3.05,4.09,7.91,6.73,13.4,6.73h48.39c7.06,0,12.84-5.78,12.84-12.84h0c0-1.83-.44-3.56-1.22-5.09-.31-.61-.15-1.35.38-1.77,2.62-2.09,4.31-6.85,4.31-10.44v-1.47c0-1.83-.44-3.56-1.22-5.09-.31-.61-.15-1.35.38-1.77,2.62-2.09,4.31-5.29,4.31-8.88v-1.47c0-1.83-.44-3.56-1.22-5.09-.31-.61-.15-1.35.38-1.77,2.62-2.09,4.31-5.29,4.31-8.88h0c0-7.06-5.78-12.84-12.84-12.84Z"/>
  <rect class="cls-1" y="48.18" width="29.78" height="70.73" rx="2.74" ry="2.74"/>
</svg>