<?xml version="1.0" encoding="UTF-8"?>
<svg id="Layer_1" data-name="Layer 1" xmlns="http://www.w3.org/2000/svg" width="110" height="110" viewBox="-16 -4 170.44 151.61">
  <defs>
    <style>
      .cls-1 {
        fill: #cccc;
        stroke-width: 0px;
      }
    </style>
  </defs>
  <path class="cls-1" d="M96.63,45.9c-1.02,0-1.99-.52-2.55-1.42l-12.06-19.52-22.2,5.18c-1.36.32-2.76-.35-3.38-1.61l-7.86-16.19c-.72-1.49-.1-3.28,1.39-4,1.49-.72,3.28-.1,4,1.39l6.82,14.04,21.96-5.12c1.25-.29,2.55.25,3.23,1.34l12.02,19.46,16.03-4.27c1.6-.43,3.24.53,3.67,2.12.43,1.6-.53,3.24-2.12,3.67l-18.18,4.84c-.26.07-.51.1-.77.1ZM92.41,120.4h0c0-1.59-1.29-2.88-2.88-2.88h-28.21c-1.59,0-2.88,1.29-2.88,2.88h0c0,1.59,1.29,2.88,2.88,2.88h28.21c1.59,0,2.88-1.29,2.88-2.88ZM92.41,129.46h0c0-1.59-1.29-2.88-2.88-2.88h-28.21c-1.59,0-2.88,1.29-2.88,2.88h0c0,1.59,1.29,2.88,2.88,2.88h28.21c1.59,0,2.88-1.29,2.88-2.88ZM68.58,135.75c-.7,0-1.23.64-1.1,1.32.69,3.71,3.95,6.53,7.86,6.53s7.17-2.81,7.86-6.53c.13-.69-.4-1.32-1.1-1.32h-13.53ZM118,42.84c0,15.62-6.22,25.28-12.24,34.63-5.52,8.57-10.73,16.66-11.69,29.43-.29,3.92-3.6,6.98-7.52,6.98h-22.65c-3.92,0-7.23-3.07-7.52-6.98-.96-12.77-6.17-20.86-11.69-29.43-6.02-9.34-12.24-19.01-12.24-34.63,0-14.16,6.79-26.81,17.55-34.62l1.92,4.13,1.02.64c-9.15,6.81-14.92,17.69-14.92,29.85,0,13.99,5.51,22.55,11.35,31.61,5.65,8.78,11.5,17.85,12.56,32.03.08,1.03.95,1.83,1.97,1.83h22.65c1.05,0,1.89-.79,1.97-1.83,1.06-14.18,6.91-23.26,12.56-32.03,5.84-9.07,11.35-17.63,11.35-31.61,0-1.76-.12-3.49-.36-5.19l5.53-.67c.27,1.92.4,3.87.4,5.85ZM56.13,69.11c1.24-.9,1.52-2.65.61-3.89-13.25-18.2-3.69-35.16-3.27-35.9.77-1.32.33-3.03-.99-3.81-1.33-.78-3.03-.34-3.81.99-.49.84-11.89,20.76,3.57,41.99.54.75,1.39,1.15,2.25,1.14.57,0,1.14-.17,1.64-.53Z"/>
</svg>