<?xml version="1.0" encoding="UTF-8"?>
<svg id="Layer_1" data-name="Layer 1" xmlns="http://www.w3.org/2000/svg" width="140" height="140" viewBox="-230 -250 1700 1700">  <defs>    <style>
       .cls-1 {
        fill: #cccccc;
        stroke-width: 0px;
      }
    </style>
  </defs>
  <path class="cls-1" d="M298.43,453.82c1.16,9.39,1.05,18.36,3.74,26.38,1.49,4.45,7.1,9.14,11.82,10.59,17.86,5.49,36.08,9.85,54.25,14.33,12.48,3.08,18.34,10.52,18.22,23.54-.28,31.61-.37,63.23.05,94.83.16,11.84-5,19.09-15.65,22.91-10.75,3.86-21.47,7.89-32.45,10.99-8.16,2.31-10.97,6.62-9.74,14.94,5.17,34.77,9.71,69.64,15.11,104.38,3.39,21.82-3.75,31.09-25.67,31.36-9.61.12-19.23.22-28.84.52-1.16.04-2.29,1.26-3.92,2.23.92,12.1,7.58,18.06,19.36,18.25,17.4.28,34.81.22,52.22.23,68.72.02,137.44.03,206.16,0,20.49-.01,25.2-5.52,26.32-26.16.78-14.38.99-29.75,6.27-42.72,8.58-21.05,26.74-31.85,49.91-32.48,14.65-.4,29.32.07,43.98-.22,18.23-.36,30.76-23.89,20.77-39.36-1.63-2.53-6.06-3.53-9.4-4.62-46.59-15.32-72.63-50.46-73.29-99.59-.31-22.9-.12-45.81-.06-68.72.06-24.65,4.86-29.49,29.55-30.25,2.69-.08,5.37-.42,10.21-.81,0-19.31-.23-38.35.07-57.37.26-16.96,11.12-26.62,26.28-23.49,13.46,2.78,16.52,13.34,16.77,24.94.38,18.24.1,36.5.1,55.75h37.15c0-18.83-.2-37.39.06-55.95.21-14.59,7.17-23.7,18.33-24.97,14.5-1.66,23.87,6.91,24.11,22.8.3,19.12.07,38.24.07,58.27,8.62.53,16.67-.89,22.79,1.9,7.02,3.19,17.39,9.97,17.56,15.46,1.04,34.24,2.61,68.93-1.76,102.73-4.86,37.65-29.26,63.31-64.98,76.66-8.59,3.21-10.92,7.53-10.45,15.98.95,17.14-.59,33.9-11.96,48.11-11.88,14.85-27.38,22.65-46.3,23.14-14.19.37-28.4-.04-42.6.12-15.63.18-21.58,5.92-21.48,21.67.11,17.47.42,34.76-9.65,50.3-13.12,20.24-32.19,29.54-55.63,29.61-87.04.25-174.09.38-261.14-.03-35.38-.17-54.97-19.57-63-61.93-10.82,0-22.13-.38-33.39.1-13.9.58-22.05-5.37-26.33-18.76-43.44-135.89-87.11-271.72-130.85-407.52-2.07-6.43-4.48-13.09-8.3-18.56C-54.84,223.39,23.1,41.11,189.98,4.5c41.06-9.01,80.86-2.86,120.92,4.23,89.86,15.91,179.68,32.06,269.51,48.17,52.95,9.5,105.86,19.27,158.87,28.43,6.34,1.1,13.7.56,19.73-1.61,32.21-11.58,64.17-23.87,96.17-36.02,25.13-9.54,36.79-1.87,36.81,24.66.06,91.63.07,183.25,0,274.88-.02,25.23-11.18,32.61-34.88,23.65-32.87-12.42-65.7-24.97-98.78-36.79-6.06-2.17-13.75-3.02-19.85-1.37-144.26,39.09-288.41,78.61-432.57,118.09-2.16.59-4.19,1.66-7.48,3ZM728.47,210.04c0-24.28-.47-48.58.24-72.84.28-9.36-3.3-12.97-11.82-14.42-26.52-4.52-52.98-9.36-79.45-14.14-109.56-19.79-219.09-39.79-328.7-59.3-38.19-6.8-76.08-13.67-115.45-4.2C104.88,66.42,38.47,145.76,40.51,232.52c1.9,80.77,45.82,134.96,114.79,170.47,32.89,16.93,68.84,26.8,106.09,16.92,152.47-40.45,304.7-81.79,457.09-122.54,7.61-2.04,10.28-5.3,10.14-13.11-.42-24.73-.16-49.48-.15-74.22ZM257.13,463.18c-53.73,3.64-101.75-9.72-149.2-36.85,36.24,113.35,71.26,223.2,106.86,332.86,1.28,3.93,8.13,8.39,12.54,8.56,21.85.86,43.76.41,65.65.27,2.08-.01,4.15-1.03,7.41-1.89-14.41-100.9-28.73-201.2-43.26-302.96ZM848.07,94.39c-25.41,9.44-49.76,18.17-73.76,27.8-2.84,1.14-5.26,7.13-5.28,10.89-.34,51.27-.32,102.55-.05,153.83.02,3.55,1.77,9.32,4.2,10.28,24.45,9.67,49.22,18.56,74.89,28.03V94.39ZM729.49,525.34c-17.37,0-34.75-.42-52.08.36-3.38.15-9.35,4.9-9.39,7.59-.3,20.97-.97,42.13,1.44,62.89,3.17,27.35,29.19,50.7,53.29,50.75,35.69.07,61.51-18.75,65.63-50.85,2.66-20.7,1.68-41.92,1.32-62.89-.04-2.67-6.07-7.33-9.49-7.49-16.87-.78-33.8-.36-50.71-.35ZM321.31,616.98q23.37-3.97,23.38-25.54c0-7.32,0-14.64,0-21.96q0-31.82-31.57-35.53c-.73-.09-1.55.63-3.39,1.45,3.83,26.98,7.7,54.27,11.58,81.58Z"/>
  <path class="cls-1" d="M384.56,231.88c-.15,84.73-68.03,152.01-153.13,151.76-83.66-.24-150.85-68.52-150.43-152.89.42-83.95,68.89-152.15,152.24-151.62,83.71.53,151.47,68.93,151.32,152.74ZM231.76,343.03c61.69.13,112.24-49.52,112.83-110.83.59-61.03-50.13-112.22-111.35-112.38-61.12-.16-112.03,50.61-112.08,111.79-.05,60.9,49.97,111.3,110.6,111.43Z"/>
  <path class="cls-1" d="M729.36,606.4c-12.85.16-21.05-7.4-21.16-19.51-.11-12.33,8.06-20.95,20.1-21.2,12.17-.25,20.84,7.99,21.18,20.13.34,12.27-7.63,20.42-20.12,20.58Z"/>
  <path class="cls-1" d="M161.21,231.5c0-38.44,27.28-67.96,65.71-71.15,14.76-1.23,26,6.69,27.12,19.09,1.02,11.33-8.55,20.98-22.52,22.72-16.6,2.06-27.72,13.1-28.44,28.23-.72,15.06,10.4,27.19,27.68,30.24,16.22,2.86,25.22,12.71,22.96,25.16-2.46,13.58-14.12,20.01-30.83,17-37.2-6.7-61.69-35-61.68-71.28Z"/>
</svg>