<?xml version="1.0" encoding="UTF-8"?>
<svg id="Layer_1" data-name="Layer 1" xmlns="http://www.w3.org/2000/svg" width="110" height="110" viewBox="-16 -4 170.44 151.61">
  <defs>
    <style>
      .cls-1 {
        fill: #cccccc;
        stroke-width: 0px;
      }
    </style>
  </defs>
  <path class="cls-1" d="M30.66,96.18l14.94,27.08-8.77,4.84-16.04-29.08,2.49-3.51,3.39,2,1.35-2.13,2.63.79ZM111.54,93c-1.8.19-3.16,1.95-2.95,3.88s1.9,3.36,3.7,3.17c1.79-.19,3.15-1.94,2.94-3.88-.21-1.94-1.9-3.36-3.69-3.17ZM109.05,69.76c-1.8.19-3.16,1.88-2.96,3.81s1.9,3.36,3.7,3.17c1.79-.19,3.15-1.94,2.94-3.88-.21-1.94-1.89-3.3-3.69-3.11ZM106.48,45.69c-1.8.19-3.16,1.95-2.95,3.88s1.9,3.37,3.7,3.18c1.79-.19,3.15-1.94,2.94-3.89s-1.9-3.36-3.69-3.17ZM106.48,45.69c-1.8.19-3.16,1.95-2.95,3.88s1.9,3.37,3.7,3.18c1.79-.19,3.15-1.94,2.94-3.89s-1.9-3.36-3.69-3.17ZM109.05,69.76c-1.8.19-3.16,1.88-2.96,3.81s1.9,3.36,3.7,3.17c1.79-.19,3.15-1.94,2.94-3.88-.21-1.94-1.89-3.3-3.69-3.11ZM111.54,93c-1.8.19-3.16,1.95-2.95,3.88s1.9,3.36,3.7,3.17c1.79-.19,3.15-1.94,2.94-3.88-.21-1.94-1.9-3.36-3.69-3.17ZM107.23,52.75c1.79-.19,3.15-1.94,2.94-3.89s-1.9-3.36-3.69-3.17-3.16,1.95-2.95,3.88,1.9,3.37,3.7,3.18ZM112.74,72.86c.21,1.94-1.15,3.69-2.94,3.88-1.8.19-3.49-1.24-3.7-3.17s1.15-3.62,2.96-3.81c1.79-.19,3.48,1.17,3.69,3.11ZM112.74,72.86c.21,1.94-1.15,3.69-2.94,3.88-1.8.19-3.49-1.24-3.7-3.17s1.15-3.62,2.96-3.81c1.79-.19,3.48,1.17,3.69,3.11ZM138.37,30.53c.11,1.07,0,2.13-.3,3.12-.3.98-.78,1.89-1.39,2.65-1.12,1.31-2.55,2.31-4.25,2.76l7.79,72.9-52.71,5.63-7.78-72.83-49.52,5.29,4.15,38.83-1.91-1.59-1.91,1.34-2.33-3.12-4.01,2.49-3.94-36.88-1.18.13c-2.21.24-4.25-.46-5.86-1.76-.8-.61-1.48-1.39-1.98-2.29-.51-.9-.84-1.92-.96-2.99-.11-1.07,0-2.12.31-3.1.3-.97.8-1.89,1.45-2.69.65-.77,1.46-1.43,2.37-1.93.91-.5,1.92-.83,2.99-.95l112.26-11.99c2.15-.23,4.25.46,5.85,1.68.77.65,1.42,1.45,1.93,2.33.5.89.83,1.89.95,2.96ZM132.58,88.37l-42.61,4.55,2.01,18.82,42.61-4.55-2.01-18.82ZM130.21,66.1l-42.61,4.55,1.81,16.95,42.61-4.55-1.81-16.95ZM127.48,40.57l-42.61,4.55,2.16,20.2,42.61-4.55-2.16-20.2ZM106.1,73.57c-.21-1.94,1.15-3.62,2.96-3.81,1.79-.19,3.48,1.17,3.69,3.11.21,1.94-1.15,3.69-2.94,3.88-1.8.19-3.49-1.24-3.7-3.17ZM108.59,96.88c-.21-1.94,1.15-3.69,2.95-3.88,1.79-.19,3.49,1.24,3.69,3.17.21,1.94-1.15,3.69-2.94,3.88-1.8.19-3.49-1.24-3.7-3.17ZM111.54,93c-1.8.19-3.16,1.95-2.95,3.88s1.9,3.36,3.7,3.17c1.79-.19,3.15-1.94,2.94-3.88-.21-1.94-1.9-3.36-3.69-3.17ZM109.05,69.76c-1.8.19-3.16,1.88-2.96,3.81s1.9,3.36,3.7,3.17c1.79-.19,3.15-1.94,2.94-3.88-.21-1.94-1.89-3.3-3.69-3.11ZM106.48,45.69c-1.8.19-3.16,1.95-2.95,3.88s1.9,3.37,3.7,3.18c1.79-.19,3.15-1.94,2.94-3.89s-1.9-3.36-3.69-3.17ZM106.48,45.69c-1.8.19-3.16,1.95-2.95,3.88s1.9,3.37,3.7,3.18c1.79-.19,3.15-1.94,2.94-3.89s-1.9-3.36-3.69-3.17ZM109.05,69.76c-1.8.19-3.16,1.88-2.96,3.81s1.9,3.36,3.7,3.17c1.79-.19,3.15-1.94,2.94-3.88-.21-1.94-1.89-3.3-3.69-3.11ZM111.54,93c-1.8.19-3.16,1.95-2.95,3.88s1.9,3.36,3.7,3.17c1.79-.19,3.15-1.94,2.94-3.88-.21-1.94-1.9-3.36-3.69-3.17ZM33.2,53.31l1.12,10.51,44.34-4.74-1.12-10.51-44.34,4.74ZM111.54,93c-1.8.19-3.16,1.95-2.95,3.88s1.9,3.36,3.7,3.17c1.79-.19,3.15-1.94,2.94-3.88-.21-1.94-1.9-3.36-3.69-3.17ZM109.05,69.76c-1.8.19-3.16,1.88-2.96,3.81s1.9,3.36,3.7,3.17c1.79-.19,3.15-1.94,2.94-3.88-.21-1.94-1.89-3.3-3.69-3.11ZM106.48,45.69c-1.8.19-3.16,1.95-2.95,3.88s1.9,3.37,3.7,3.18c1.79-.19,3.15-1.94,2.94-3.89s-1.9-3.36-3.69-3.17ZM18.45,77.46v-1.07"/>
</svg>