<?xml version="1.0" encoding="UTF-8"?>
<svg id="Layer_1" data-name="Layer 1" xmlns="http://www.w3.org/2000/svg" width="110" height="110" viewBox="-16 -4 170.44 151.61">
  <defs>
    <style>
      .cls-1 {
        fill: #cccccc ;
        stroke-width: 0px;
      }
    </style>
  </defs>
  <path id="_724_Cold_Temperature_Weather" data-name="724, Cold, Temperature, Weather" class="cls-1" d="M74.35,141.52h-.46c-8.31,0-15.93-3.43-21.93-9.14-5.77-5.71-9.23-13.49-9.46-21.49-.23-10.97,5.31-21.03,14.31-26.97V27.23c0-4.57,1.85-8.91,5.08-12.11,3.23-3.2,7.62-5.03,12.23-5.03,9.46,0,17.31,7.77,17.31,17.14v56.46c9,5.71,14.54,15.77,14.54,26.29,0,8.46-3.23,16.23-9.23,22.17-6,5.94-13.85,9.37-22.39,9.37ZM74.35,15.81c-3,0-6,1.14-8.08,3.43-2.08,2.06-3.46,5.03-3.46,8v58.06c0,.91-.46,2.06-1.39,2.51-8.31,4.8-13.16,13.49-12.93,22.86.23,13.71,11.77,24.92,25.62,25.14h.46c6.93,0,13.39-2.74,18.47-7.54,4.85-4.8,7.62-11.43,7.62-18.29,0-9.14-5.08-17.6-12.93-22.17-1.39-.69-1.85-1.6-1.85-2.51V27.23c0-6.4-5.08-11.43-11.54-11.43ZM88.2,124.38c3.92-3.66,6.23-8.91,6.23-14.4,0-7.77-4.62-14.86-11.54-18.06v-24.69c0-1.6-1.38-2.97-3-2.97s-3,1.37-3,2.97v26.74c0,1.37.69,2.29,1.85,2.74,5.77,2.06,9.69,7.54,9.69,13.49,0,3.89-1.62,7.54-4.39,10.29-2.77,2.74-6.69,4.11-10.62,3.89-7.39-.46-13.39-6.4-13.62-13.71-.23-6.4,3.69-12.11,9.7-14.17,1.15-.46,1.85-1.6,1.85-2.74v-61.03c0-.92.46-1.6.92-2.06.69-.69,1.38-.91,2.08-.91,1.62,0,3,1.37,3,2.97v20.11c0,1.6,1.39,2.97,3,2.97s3-1.37,3-2.97v-19.89c0-4.8-3.92-8.69-8.77-8.69-2.31,0-4.62.91-6.23,2.51-1.62,1.83-2.54,3.89-2.54,6.17v58.74c-7.39,3.43-11.77,10.74-11.54,18.97.46,10.29,8.77,18.74,19.16,19.2h.92c5.31,0,10.16-1.83,13.85-5.49ZM104.75,53.91c1.89,0,3.2,1.71,3.2,3.24,0,1.8-1.32,3.51-3.2,3.51-2.19,0-3.51-1.71-3.51-3.51,0-1.53,1.32-3.24,3.51-3.24ZM107.29,48.21c0,.88-.75,1.62-1.62,1.62h-2.1c-.88,0-1.62-.75-1.62-1.62v-16.84c0-.88.75-1.62,1.62-1.62h2.1c.88,0,1.62.75,1.62,1.62v16.84Z"/>
</svg>