<?xml version="1.0" encoding="UTF-8"?>
<svg id="Layer_1" data-name="Layer 1" xmlns="http://www.w3.org/2000/svg" width="110" height="110" viewBox="-16 -4 170.44 151.61">
  <defs>
    <style>
      .cls-1 {
        fill: #d9b384;
        stroke-width: 0px;
      }
    </style>
  </defs>
  <path id="A55_Cleaning_Paper_Paper_Roll_Tissue_Paper_Tissue_Roll" data-name="A55 ,Cleaning Paper ,Paper Roll ,Tissue Paper ,Tissue Roll" class="cls-1" d="M105.71,19.29c-19.64,0-35.51,7.71-38.2,18.35-.27.53-.54,1.06-.54,1.59v6.65H9.67c-2.96,0-4.57,3.72-2.42,5.58l7.8,7.71-4.31,4.25c-1.61,1.6-1.34,3.99.54,5.05l6.72,4.52-7.26,7.18c-1.61,1.59-1.34,3.99.54,5.05l6.72,4.52-7.26,7.18c-1.61,1.59-1.34,3.99.54,5.05l6.46,4.26-6.73,5.58c-1.61,1.33-1.61,3.99.27,5.32l3.5,2.66-7.26,7.18c-2.15,1.59-.81,5.32,2.15,5.32h121.87c6.99,0,12.65-5.58,12.65-12.5V40.83c0-11.97-16.95-21.54-38.47-21.54ZM82.04,31c11.57-5.85,26.36-6.38,38.74-3.19,5.65,1.59,12.11,3.99,15.33,9.04,3.23,4.79-.27,9.58-4.3,12.24-10.49,7.18-25.83,7.98-38.2,5.58-8.07-1.59-27.44-9.31-17.22-19.68,1.88-1.6,3.77-2.93,5.65-3.99,6.46-3.19-5.38,2.66,0,0ZM17.74,125.67l4.3-4.25c1.35-1.33,1.35-3.72-.27-5.05l-3.23-2.39,6.72-5.58c1.62-1.33,1.62-3.99-.27-5.32l-6.73-4.52,7.26-7.18c1.61-1.59,1.35-3.99-.54-5.05l-6.73-4.52,7.26-7.18c1.61-1.59,1.35-3.99-.54-5.05l-6.73-4.52,3.77-3.72c1.35-1.33,1.35-3.46,0-4.79l-4.3-3.99h48.96v10.11h-33.36c-4.31,0-4.31,6.65,0,6.65h33.63v26.59h-13.45c-4.3,0-4.3,6.65,0,6.65h13.45v6.65h-23.67c-4.31,0-4.31,6.65,0,6.65h23.67v3.19c0,2.39.81,4.79,1.88,6.65H17.74ZM137.46,119.82c0,3.19-2.69,5.85-5.92,5.85h-51.11c-3.77,0-6.73-2.92-6.73-6.65V53.33c10.22,8.25,25.29,10.11,37.93,9.04,9.15-.8,18.83-3.19,25.83-9.04v66.49ZM91.18,49.88c5.11,2.39,11.3,2.92,16.95,2.66,5.38-.26,11.3-1.59,15.6-4.79,6.73-5.32,2.96-12.5-3.77-15.69-5.11-2.39-11.3-2.92-16.95-2.66-5.38.27-11.3,1.6-15.6,4.79-6.73,5.32-2.96,12.5,3.77,15.69,3.77,1.59-6.46-2.92,0,0ZM105.71,36.05c3.77,0,7.8.53,11.3,1.86,1.08.53,3.77,1.59,3.77,2.92s-2.96,2.66-3.77,2.93c-3.5,1.59-7.53,1.86-11.3,1.86s-7.8-.53-11.3-1.86c-1.08-.53-3.77-1.6-3.77-2.93s2.96-2.66,3.77-2.92c3.5-1.59,7.26-1.86,11.3-1.86Z"/>
</svg>