<?xml version="1.0" encoding="UTF-8"?>
<svg id="Layer_1" data-name="Layer 1" xmlns="http://www.w3.org/2000/svg" width="110" height="110" viewBox="-18 -4 170.44 151.61">
  <defs>
    <style>
      .cls-1 {
        fill: #d9b384;
        stroke-width: 0px;
      }
    </style>
  </defs>
  <g id="_225_Drink_Fast_Food_Food_" data-name="225, Drink, Fast Food, Food,">
    <path class="cls-1" d="M126.43,86.7c-1.15-15.9-14.56-28.59-31.03-28.59-2.68.19-11.11-1.32-20.49,4.17l1.34-23.1c0-1.32-.96-2.46-2.49-2.46h-28.92l-4.6-17.23c-.19-.95-1.15-1.7-2.3-1.7h-16.85c-1.34,0-2.49,1.14-2.49,2.46s1.15,2.46,2.49,2.46h14.94l3.83,14.2h-18.77c-1.34,0-2.49,1.14-2.49,2.46l4.79,89.93c0,1.33,1.15,2.27,2.49,2.27h98.06c1.34,0,2.49-1.14,2.49-2.46v-19.31c4.21-.95,7.28-4.54,7.28-8.9v-5.3c0-4.35-3.06-7.95-7.28-8.9ZM95.4,62.85c13.79,0,25.09,10.41,26.24,23.67h-57.26c1.15-13.25,12.45-23.67,26.24-23.67h4.79ZM71.27,41.46l-1.15,21.39h-18.39l-5.75-21.39h25.28ZM41.2,41.46l5.75,21.39h-22.02l-1.15-21.39h17.43ZM25.12,67.58h43.09c-4.98,5.11-8.04,11.74-8.62,19.12-4.21.95-7.28,4.54-7.28,8.9v5.3c0,4.35,3.06,7.95,7.28,8.9v16.85h-31.22l-3.26-59.07ZM64.38,126.65v-16.66h19.15v2.46c0,3.98,3.26,7.19,7.28,7.19s7.28-3.22,7.28-7.19c0-1.33,1.15-2.46,2.49-2.46s2.49,1.14,2.49,2.46v4.73c0,3.98,3.26,7.19,7.28,7.19s7.28-3.22,7.28-7.19v-7.19h4.79v16.66h-58.03ZM128.92,100.9c0,2.46-2.11,4.35-4.4,4.35h-9.96c-1.34,0-2.49,1.14-2.49,2.46v9.47c0,1.32-1.15,2.46-2.49,2.46s-2.49-1.14-2.49-2.46v-4.73c0-3.98-3.26-7.19-7.28-7.19s-7.28,3.22-7.28,7.19c0,1.32-1.15,2.46-2.49,2.46s-2.49-1.14-2.49-2.46c0-.38,0-12.31,0-11.93,0-1.32-1.15-2.46-2.49-2.46s-2.49,1.14-2.49,2.46c0,.19,0,4.92,0,4.73h-21.07c-2.49,0-4.4-1.89-4.4-4.35v-5.3c0-2.46,1.91-4.35,4.4-4.35h62.82c2.49,0,4.4,1.89,4.4,4.35v5.3h.19Z"/>
  </g>
</svg>