<?xml version="1.0" encoding="UTF-8"?>
<svg id="Layer_1" data-name="Layer 1" xmlns="http://www.w3.org/2000/svg" width="125" height="115" viewBox="-185 -395 1700 1700">
  <defs>
    <style>
     .cls-1 {
        fill: #cccccc;
        stroke-width: 0px;
      }
    </style>
  </defs>
  <path class="cls-1" d="M33.16,784c-55.34-58.8-35.76-138.73,27.44-169.86C22.11,577.7.55,533.54.56,480.4c.01-52.98,21.6-96.81,60.8-133.83-31.58-16.83-53.02-40.96-59.17-76.66-6.18-35.92,5.66-65.86,30.75-92.48-2.89-3.6-5.81-7.17-8.66-10.79C-1,134.45-7.28,98.86,8.94,61.29,25.15,23.77,55.05,3.55,96.07.4c3.9-.3,7.83-.36,11.75-.36,324.49-.01,648.99-.13,973.48.08,72.6.05,127.35,32.16,161.31,96.36,36.18,68.39,21.93,152.19-33.16,206.98-2.15,2.14-4.61,3.97-8.46,7.24,33.47,17.06,54.3,42.5,59.94,78.32,5.61,35.64-6.7,65.84-31.51,91.17,48.06,46.57,47,131.43-26.55,169.98,6.21,6.7,12.78,12.85,18.26,19.85,42.94,54.79,53.87,115.7,28.35,180.32-24.86,62.95-73.78,98.2-140.39,108.87-6.83,1.09-13.9.94-20.86.94-328.41.04-656.83.1-985.24-.01-59.34-.02-104.86-46.76-102.44-105.04,1.15-27.65,12.39-51.26,32.61-71.12ZM206.46,507.77c-1.07,3.31-1.66,4.92-2.11,6.57-4.23,15.37-13.42,22.84-27.67,22.48-13.64-.35-23.91-9.3-26.44-24.19-1.15-6.79-.81-13.87-.82-20.82-.05-29.83,8.91-38.72,38.85-38.72,310.08,0,620.16.03,930.23-.11,15.6,0,31.25-.96,46.77-2.49,31.23-3.08,51.79-35.51,40.99-63.84-8.1-21.23-26.65-32.86-52.64-32.86-300.06-.01-600.12,0-900.18,0-26.13,0-52.27-.39-78.39.1-78.94,1.46-136.77,76.83-117.89,153.29,13.64,55.26,63.87,95.14,120.94,95.16,326.19.12,652.38.06,978.57.06,1.74,0,3.49.03,5.23-.04,21.48-.88,40.41-15.98,45.75-36.46,5.22-20.04-3.1-42.44-22.42-52.21-9.38-4.74-21.48-5.67-32.35-5.68-309.64-.28-619.28-.23-928.93-.23h-17.49ZM1058.03,147.58c1.04-3.85,1.83-6.76,2.61-9.67,3.91-14.7,13.95-22.42,28.24-21.74,13.71.66,23.96,10.16,25.66,24.87.9,7.74.5,15.65.45,23.49-.2,27.95-9.88,37.64-37.49,37.64-321.42,0-642.84,0-964.26,0-4.36,0-8.72-.18-13.06.09-22.91,1.45-42,18.09-45.6,39.62-5.39,32.21,17.56,57.26,52.73,57.27,318.81.03,637.61.02,956.42.02,8.71,0,17.43.18,26.13-.09,77.29-2.37,134.22-77.47,115.75-152.61-14.24-57.94-62.99-95.88-123.77-95.89-324.47-.06-648.94-.03-973.4-.03-3.05,0-6.11-.11-9.14.1-25.1,1.73-44.64,22.04-45.32,47-.81,29.66,21.09,49.89,54.23,49.89,312.27.02,624.55.01,936.82.01h13.01ZM1058.18,753.98c.93-3.61,1.58-6.11,2.22-8.61,4.12-15.98,15.1-24.28,30.09-22.73,13.68,1.42,23.32,12.2,24.38,27.79.44,6.5.17,13.06.13,19.59-.16,28.31-10.33,38.57-38.22,38.57-320.54,0-641.09,0-961.63,0-4.79,0-9.59-.19-14.37.09-23.7,1.39-42.8,18.12-46.28,40.4-4.88,31.21,18.54,56.47,52.61,56.48,323.59.03,647.19.02,970.78.02,4.36,0,8.71.06,13.06-.09,75.7-2.49,133.25-78.07,115.13-151.17-14.78-59.63-63.19-97.3-125.47-97.31-323.59-.04-647.19-.02-970.78-.02-3.05,0-6.11-.11-9.14.07-22.99,1.38-42.32,17.85-46.08,39.18-5.5,31.23,17.79,57.69,51.25,57.69,313.58.06,627.15.04,940.73.04h11.59Z"/>
</svg>