<?xml version="1.0" encoding="UTF-8"?>
<svg id="Layer_1" data-name="Layer 1" xmlns="http://www.w3.org/2000/svg" width="110" height="110" viewBox="-16 -4 170.44 151.61">
  <defs>
    <style>
      .cls-1 {
        fill: #cccccc;
        stroke-width: 0px;
      }
    </style>
  </defs>
  <path class="cls-1" d="M72.66,122.24c-1.93,0-3.5-1.57-3.5-3.5v-61.35c0-1.93,1.57-3.5,3.5-3.5s3.5,1.57,3.5,3.5v61.35c0,1.93-1.57,3.5-3.5,3.5ZM55.35,118.74v-61.35c0-1.93-1.57-3.5-3.5-3.5s-3.5,1.57-3.5,3.5v61.35c0,1.93,1.57,3.5,3.5,3.5s3.5-1.57,3.5-3.5ZM123.53,133.3c.65,1.82-.31,3.82-2.13,4.46-.39.14-.78.2-1.17.2-1.44,0-2.79-.89-3.3-2.33l-7.9-22.36-8.97-25.36s-.01-.03-.02-.05l-2.77-7.85v54.38c0,1.93-1.57,3.5-3.5,3.5H29.48c-1.94,0-3.5-1.57-3.5-3.5V38.52c0-1.33.74-2.48,1.83-3.08h.01s6.89-11.77,6.89-11.77c.63-1.07,1.78-1.73,3.02-1.73h14.78l5.29-6.91c.67-.86,1.69-1.37,2.78-1.37h20.97c1.38,0,2.63.82,3.2,2.08l8.62,19.28h.4c1.93,0,3.5,1.57,3.5,3.5v20.52c.04.09.08.18.11.28l8.08,22.87,5.28-2.03c.88-.34,1.86-.31,2.72.08.86.4,1.52,1.13,1.84,2.02l8.96,25.36c.63,1.79-.27,3.75-2.04,4.43l-5.46,2.1,6.77,19.15ZM57.03,27.55l2.46,7.47h26.21l-6.42-14.36h-16.97l-5.28,6.89ZM36.18,35.02h15.94l-2-6.08h-10.38l-3.56,6.08ZM90.27,42.02h-57.29v88.87h57.29V42.02ZM116.52,106.74l-6.63-18.76-2.09.81,6.63,18.76,2.09-.81Z"/>
</svg>